<svg width="62px" height="62px" viewBox="0 -13 62 62" xmlns="http://www.w3.org/2000/svg">
  <path id="AmericanFootball" d="M313.079,134.425C307.649,130.892,304,126.5,304,123.5c0-1.433.865-3.328,2.436-5.337a30.839,30.839,0,0,1,6.643-6.088,37.5,37.5,0,0,1,43.841,0,30.844,30.844,0,0,1,6.644,6.088c1.571,2.009,2.436,3.9,2.436,5.337,0,3-3.649,7.392-9.08,10.925a39.826,39.826,0,0,1-43.841,0ZM335,138a36.542,36.542,0,0,0,13.709-2.761,36.876,36.876,0,0,0,2.233-11.02h-2.129a1.52,1.52,0,0,1-.812.68V126a1,1,0,0,1-2,0v-1h-2v1a1,1,0,0,1-2,0v-1h-2v1a1,1,0,0,1-2,0v-1h-2v1a1,1,0,1,1-2,0v-1h-2v1a1,1,0,0,1-2,0v-1h-2v1a1,1,0,1,1-2,0v-1h-2v1a1,1,0,1,1-2,0v-1.1a1.52,1.52,0,0,1-.812-.68h-2.13a36.875,36.875,0,0,0,2.233,11.02A36.539,36.539,0,0,0,335,138Zm-19.8-5.865c.393.246.832.511,1.316.788a38.168,38.168,0,0,1-1.458-8.7h-7.887C307.857,126.178,310.586,129.241,315.2,132.134Zm38.283.787c.484-.276.923-.541,1.316-.787,4.615-2.894,7.344-5.956,8.029-7.915h-7.887A38.171,38.171,0,0,1,353.483,132.921Zm9.473-10.016a8.775,8.775,0,0,0-2.157-3.614,30.019,30.019,0,0,0-6-5.089q-.3-.2-.633-.409A40.064,40.064,0,0,1,355,122q0,.455-.01.905Zm-11.966,0q.01-.451.01-.905a39.052,39.052,0,0,0-1.449-10.7,33.731,33.731,0,0,0-29.1,0A39.052,39.052,0,0,0,319,122q0,.455.01.905h2.116a1.511,1.511,0,0,1,.875-.8V121a1,1,0,1,1,2,0v1h2v-1a1,1,0,1,1,2,0v1h2v-1a1,1,0,0,1,2,0v1h2v-1a1,1,0,1,1,2,0v1h2v-1a1,1,0,0,1,2,0v1h2v-1a1,1,0,0,1,2,0v1h2v-1a1,1,0,0,1,2,0v1.1a1.511,1.511,0,0,1,.875.8Zm-35.98,0q-.01-.451-.01-.905a40.048,40.048,0,0,1,.834-8.207q-.335.211-.634.409a30.02,30.02,0,0,0-6,5.089,8.775,8.775,0,0,0-2.157,3.614Z" transform="translate(-304 -105)"/>
</svg>
